# xmcd
#
# Track frame offsets:
#	185
#	12147
#	32427
#	45147
#	55780
#	68307
#	81207
#	96982
#	109615
#	123650
#	137840
#	150627
#	163105
#	173105
#	194570
#	216925
#	229050
#	240077
#	251807
#	263537
#
# Disc length: 3688 seconds
# Revision: 4
# Processed by: cddbd v1.5.2PL0 Copyright (c) Steve Scherf et al.
# Submitted via: dBpowerAMP V12.0
#
DISCID=fc0e6614
DTITLE=Various Artist - Blues Brother Soul Sister, Vol. 2
DYEAR=1964
DGENRE=R&B
TTITLE0=Martha Reeves And The Vandellas - Dancing in the Street
TTITLE1=John Lee Hooker and Bonnie Raitt - I'm in the Mood
TTITLE2=James Brown - It's A Man's Man's Man's World
TTITLE3=Aretha Franklin - Soulville
TTITLE4=Albert King - Born Under a Bad Sign
TTITLE5=Al Green - Tired of Being Alone
TTITLE6=Ike and Tina Turner - The Night Time Is the Right Time
TTITLE7=Jr. Walker and The All Stars - (I'm A) Roadrunner
TTITLE8=Etta James - I Just Want to Make Love to You
TTITLE9=Aaron Neville - Tell It Like It Is
TTITLE10=Tommy Tucker - Hi Heeled Sneakers
TTITLE11=Aretha Franklin - Today I Sing the Blues
TTITLE12=John Lee Hooker - Dimples
TTITLE13=The Staple Singers - I'll Take You There
TTITLE14=B.B. King - The Thrill Is Gone
TTITLE15=William Bell and Judy Clay - Private Number
TTITLE16=Howlin' Wolf - The Red Rooster
TTITLE17=Maxine Brown - Oh No Not My Baby
TTITLE18=Nina Simone - I Put a Spell on You
TTITLE19=Percy Sledge - When a Man Loves a Woman
EXTD=
EXTT0=
EXTT1=
EXTT2=
EXTT3=
EXTT4=
EXTT5=
EXTT6=
EXTT7=
EXTT8=
EXTT9=
EXTT10=
EXTT11=
EXTT12=
EXTT13=
EXTT14=
EXTT15=
EXTT16=
EXTT17=
EXTT18=
EXTT19=
PLAYORDER=
